<svg width="110" height="165" viewBox="0 0 110 165" fill="none" xmlns="http://www.w3.org/2000/svg">
<path d="M55 82.5C55 67.4671 67.1867 55.28 82.22 55.28C97.253 55.28 109.44 67.4671 109.44 82.5C109.44 97.5333 97.253 109.72 82.22 109.72C67.1867 109.72 55 97.5333 55 82.5Z" fill="#1ABCFE"/>
<path d="M0.560059 136.94C0.560059 121.907 12.7469 109.72 27.7801 109.72H55.0001V136.94C55.0001 151.973 42.8134 164.16 27.7801 164.16C12.7469 164.16 0.560059 151.973 0.560059 136.94Z" fill="#0ACF83"/>
<path d="M55 0.840088V55.28H82.22C97.2534 55.28 109.44 43.0933 109.44 28.0601C109.44 13.0269 97.2534 0.840088 82.22 0.840088H55Z" fill="#FF7262"/>
<path d="M0.560059 28.0601C0.560059 43.0932 12.7469 55.2799 27.7801 55.2799H55.0001V0.840027H27.7801C12.7469 0.840027 0.560059 13.0268 0.560059 28.0601Z" fill="#F24E1E"/>
<path d="M0.560059 82.5C0.560059 97.5333 12.7469 109.72 27.7801 109.72H55.0001V55.28H27.7801C12.7469 55.28 0.560059 67.4671 0.560059 82.5Z" fill="#A259FF"/>
</svg>
