<?xml version="1.0" encoding="utf-8"?>
<!-- Generator: Adobe Illustrator 16.0.0, SVG Export Plug-In . SVG Version: 6.00 Build 0)  -->
<!DOCTYPE svg PUBLIC "-//W3C//DTD SVG 1.1//EN" "http://www.w3.org/Graphics/SVG/1.1/DTD/svg11.dtd">
<svg version="1.1" id="Layer_1" xmlns="http://www.w3.org/2000/svg" xmlns:xlink="http://www.w3.org/1999/xlink" x="0px" y="0px"
	 width="263.39px" height="233.898px" viewBox="0 0 263.39 233.898" enable-background="new 0 0 263.39 233.898"
	 xml:space="preserve">
<text transform="matrix(1 0 0 1 45.5801 46.4409)" font-family="'BebasNeue'" font-size="12">JoJjio</text>
<g>
	<path d="M80.281,116.033v52.9c0,19.319-8.43,25.85-22.31,26.67c-3.26,0-7.07,0-10.61-0.271v19.32c4.62,0.54,8.43,0.271,13.33,0.271
		c22.86-0.54,40.55-11.7,40.55-47.351v-51.54H80.281z"/>
	<path d="M189.122,116.033v52.36c0,17.41-7.34,26.939-22.58,26.939h-23.131v-79.3h-21.229v98.62h44.63
		c29.66,0,43.27-17.96,43.27-47.08v-51.54H189.122z"/>
</g>
<path d="M210.081,71.513v25.2h-20.959v-26.29c0-15.23-5.621-24.43-17.42-26.5c-1.681-0.29-3.49-0.44-5.431-0.44h-22.86v53.23
	h-21.229v-52.79h-20.94v52.79h-20.96v-52.79h-32.92v-19.76h119.45c2.84,0,5.54,0.17,8.09,0.49
	C198.961,27.713,210.081,44.943,210.081,71.513z"/>
<path d="M171.702,43.923h-28.291v-0.44h22.86C168.211,43.483,170.021,43.633,171.702,43.923z"/>
<path d="M174.901,24.164v0.49c-2.55-0.32-5.25-0.49-8.09-0.49H174.901z"/>
<rect x="210.081" y="96.713" width="20.959" height="19.32"/>
</svg>
