<svg width="300" height="93" viewBox="0 0 300 93" fill="none" xmlns="http://www.w3.org/2000/svg">
<path d="M78 0H15C6.71572 0 0 6.71572 0 15V78C0 86.2845 6.71572 93 15 93H78C86.2845 93 93 86.2845 93 78V15C93 6.71572 86.2845 0 78 0Z" fill="#FFD02F"/>
<path fill-rule="evenodd" clip-rule="evenodd" d="M63 15H54L61.5 28.5L45 15H36L44.25 31.5L27 15H18L27 36L18 78H27L44.25 33L36 78H45L61.5 30L54 78H63L79.5 25.5L63 15Z" fill="#050038"/>
<path fill-rule="evenodd" clip-rule="evenodd" d="M276 21C291 21 300 32.1971 300 46.5C300 60.75 291 72 276 72C261 72 252 60.8029 252 46.5C252 32.1971 261 21 276 21ZM208.5 24V70.5H198V48V36.75V25.5L208.5 24ZM247.5 22.5V33L241.5 33.75C236.25 34.5 232.5 37.5 232.5 43.4699V70.5H222V43.4699C222 30.6301 229.5 24.75 241.5 23.25L247.5 22.5ZM142.5 22.5C147 22.5 151.653 24.3596 154.5 28.5C157.357 24.7296 162 22.5 168 22.5C175.5 22.5 184.5 27 184.5 42V70.5H174V42C174 36.75 170.73 33 165.75 33C160.77 33 157.5 36.75 157.5 42V70.5H147V42C147 36.75 143.729 33 138.75 33C133.682 33 130.5 36.75 130.5 42V70.5H120V42V25.5L130.5 24V28.5C133.434 24.8929 136.5 22.5 142.5 22.5ZM276 31.5C267 31.5 262.5 38.2171 262.5 46.5C262.5 54.7829 267 61.5 276 61.5C285 61.5 289.5 54.75 289.5 46.5C289.5 38.2275 285 31.5 276 31.5ZM203.25 4.5C207 4.5 210 6.75 210 11.25C210 15.75 207 18 203.25 18C199.5 18 196.5 15.75 196.5 11.25C196.5 6.74998 199.5 4.5 203.25 4.5Z" fill="#050038"/>
</svg>
